<?xml version="1.0"?>
<svg width="132.642" height="93.377" xmlns="http://www.w3.org/2000/svg" xmlns:svg="http://www.w3.org/2000/svg" xmlns:xlink="http://www.w3.org/1999/xlink" enable-background="new 0 0 196.6 72" version="1.1" xml:space="preserve">
 <metadata id="metadata20"/>
 <defs id="defs18">
  <clipPath clipPathUnits="userSpaceOnUse" id="clipPath8812">
   <circle cx="95.67" cy="95.67" fill="#00080d" id="circle8814" r="79.72"/>
  </clipPath>
  <linearGradient id="svg_4" x1="50%" x2="50%" y1="0%" y2="99.2583404%">
   <stop offset="0%" stop-color="#2AABEE"/>
   <stop offset="100%" stop-color="#229ED9"/>
  </linearGradient>
  <symbol height="1000px" id="svg_5" version="1.1" viewBox="0 0 1000 1000" width="1000px" xmlns="http://www.w3.org/2000/svg" xmlns:xlink="http://www.w3.org/1999/xlink">
   <title>Artboard</title>
   <desc>Created with Sketch.</desc>

   <g fill="none" fill-rule="evenodd" id="svg_1">
    <circle cx="500" cy="500" fill="url(#svg_4)" id="svg_3" r="500"/>
    <path d="m226.33,494.72c145.76,-63.5 242.95,-105.37 291.59,-125.6c138.85,-57.75 167.71,-67.79 186.51,-68.12c4.14,-0.07 13.39,0.96 19.38,5.82c5.05,4.1 6.45,9.65 7.11,13.54c0.67,3.89 1.5,12.75 0.84,19.68c-7.53,79.06 -40.08,270.92 -56.65,359.48c-7.01,37.46 -20.81,50.03 -34.17,51.26c-29.04,2.67 -51.08,-19.19 -79.21,-37.63c-44,-28.84 -68.86,-46.8 -111.58,-74.95c-49.37,-32.53 -17.36,-50.41 10.77,-79.63c7.36,-7.65 135.3,-124.01 137.77,-134.57c0.31,-1.32 0.6,-6.24 -2.33,-8.84c-2.92,-2.6 -7.23,-1.71 -10.35,-1c-4.41,1 -74.71,47.47 -210.9,139.4c-19.96,13.7 -38.03,20.37 -54.22,20.03c-17.86,-0.39 -52.2,-10.1 -77.73,-18.4c-31.31,-10.18 -56.2,-15.56 -54.03,-32.84c1.13,-9.01 13.53,-18.22 37.2,-27.63z" fill="#FFFFFF" id="svg_2"/>
   </g>
  </symbol>
 </defs>
 <g class="layer">
  <title>Layer 1</title>
  <path clip-rule="nonzero" d="m66.41,20.77c-11.81,0 -21.81,8 -24.91,18.84c-2.7,-5.75 -8.54,-9.78 -15.27,-9.78c-9.25,0 -16.85,7.61 -16.85,16.86c0,9.25 7.6,16.86 16.85,16.86c6.73,0 12.57,-4.03 15.27,-9.79c3.1,10.85 13.1,18.85 24.91,18.85c11.72,0 21.67,-7.88 24.85,-18.6c2.75,5.62 8.51,9.54 15.15,9.54c9.25,0 16.86,-7.61 16.86,-16.86c0,-9.25 -7.61,-16.86 -16.86,-16.86c-6.64,0 -12.4,3.92 -15.15,9.54c-3.18,-10.72 -13.13,-18.6 -24.85,-18.6zm0,9.89c8.91,0 16.03,7.12 16.03,16.03c0,8.91 -7.12,16.03 -16.03,16.03c-8.91,0 -16.03,-7.12 -16.03,-16.03c0,-8.91 7.12,-16.03 16.03,-16.03zm-40.18,9.07c3.91,0 6.97,3.05 6.97,6.96c0,3.9 -3.06,6.96 -6.97,6.96c-3.9,0 -6.96,-3.06 -6.96,-6.96c0,-3.91 3.06,-6.96 6.96,-6.96zm80.18,0c3.9,0 6.96,3.05 6.96,6.96c0,3.9 -3.06,6.96 -6.96,6.96c-3.91,0 -6.96,-3.06 -6.96,-6.96c0,-3.91 3.05,-6.96 6.96,-6.96z" display="inline" enable-background="accumulate" fill="#0082c9" fill-rule="nonzero" id="path1052" stroke-dashoffset="0" stroke-miterlimit="10" stroke-width="5.57"/>
  <use id="svg_7" transform="matrix(0.0254666, 0, 0, 0.0254666, 9.18311, 11.3862)" x="1743.64" xlink:href="#svg_5" y="896.01"/>
 </g>
</svg>
